<svg xmlns="http://www.w3.org/2000/svg" width="432" height="126" viewBox="0 0 432 126"><path d="M204.683 16.269a.32.32 0 0 0-.314.259l-2.995 15.645a.328.328 0 0 0 .068.267.323.323 0 0 0 .246.115h9.326a.322.322 0 0 0 .314-.257l.489-2.466a.32.32 0 0 0-.314-.383h-5.801c.114-.591.636-3.333.715-3.752h5.227a.322.322 0 0 0 .316-.263l.444-2.466c.003-.019.007-.038.007-.057a.323.323 0 0 0-.321-.32h-5.084c.11-.571.535-2.811.612-3.215h5.855a.321.321 0 0 0 .315-.266l.423-2.466a.329.329 0 0 0-.07-.261.325.325 0 0 0-.246-.113h-9.212zm-79.636 3.106h-.722l-.793 4.134h.734c1.033 0 1.947-.33 2.509-.9.408-.415.611-.942.611-1.565v-.056c-.021-1.115-.742-1.613-2.339-1.613zm-3.656-3.106h2.645c2.507 0 7.173 0 7.257 4.371v.133c0 1.545-.519 2.889-1.504 3.893-1.233 1.257-3.122 1.949-5.322 1.949h-1.551l-1.091 5.679a.32.32 0 0 1-.314.26h-3.138a.318.318 0 0 1-.315-.381l3.02-15.645a.316.316 0 0 1 .313-.259zm15.589 9.907c.033 1.712.852 3.542 3.049 3.542 1.117 0 2.12-.445 2.982-1.322 1.522-1.554 2.171-4.018 2.136-5.771-.031-1.702-.861-3.52-3.092-3.52-1.141 0-2.148.441-2.999 1.307-1.302 1.327-2.117 3.59-2.076 5.764zm-1.502-7.15c1.716-2.008 3.943-3.027 6.622-3.027 4.343 0 6.885 2.534 6.969 6.949.05 2.653-.861 5.188-2.571 7.145-1.574 1.787-3.935 2.731-6.824 2.731-3.875 0-6.532-2.739-6.609-6.814-.05-2.585.807-5.064 2.413-6.984zm34.707-2.757a.32.32 0 0 0-.292.19s-3.908 8.828-4.772 10.783l-.264-10.663a.318.318 0 0 0-.32-.311h-4.213a.322.322 0 0 0-.296.196s-3.673 8.862-4.474 10.798c-.122-2.065-.626-10.693-.626-10.693a.318.318 0 0 0-.318-.301h-3.139a.32.32 0 0 0-.319.348l1.286 15.644a.319.319 0 0 0 .319.294h3.878a.323.323 0 0 0 .296-.195l4.747-11.256.353 11.141a.32.32 0 0 0 .32.311h3.922a.321.321 0 0 0 .292-.187l7.165-15.645a.313.313 0 0 0-.022-.306.318.318 0 0 0-.269-.147h-3.254zm6.509 0a.32.32 0 0 0-.314.259l-2.995 15.645a.319.319 0 0 0 .314.382h9.324a.321.321 0 0 0 .315-.257l.489-2.466a.32.32 0 0 0-.313-.383h-5.8l.713-3.752h5.228a.32.32 0 0 0 .314-.263l.447-2.466c.002-.019.005-.038.005-.057a.313.313 0 0 0-.075-.204.316.316 0 0 0-.245-.116h-5.083l.612-3.215h5.853c.156 0 .29-.112.317-.266l.423-2.466c.002-.017.005-.035.005-.054a.319.319 0 0 0-.32-.32h-9.214zm17.305 3.106h-1.035l-.672 3.573h.757c.748 0 2.113-.112 2.847-.859.339-.346.505-.784.505-1.337v-.055c-.024-1.233-.923-1.322-2.402-1.322zm-.214-3.106c2.869-.001 6.443-.001 6.521 4.013v.105c0 1.185-.384 2.211-1.118 2.971-.62.642-1.479 1.079-2.479 1.284.334.286.582.696.714 1.213l1.623 6.299a.313.313 0 0 1-.057.276.323.323 0 0 1-.253.124h-3.296a.32.32 0 0 1-.312-.248l-.832-3.674-.154-.727c-.259-1.271-.375-1.851-1.562-1.851h-.922l-1.193 6.24a.32.32 0 0 1-.315.26h-3.137a.318.318 0 0 1-.314-.379l2.972-15.646a.32.32 0 0 1 .314-.261h3.8zm27.775 3.106h-.809l-1.917 10.073h1.07c1.997 0 3.527-.53 4.557-1.576 1.052-1.073 1.585-2.686 1.585-4.8l-.004-.245c-.042-2.162-1.717-3.452-4.482-3.452zm-3.746-3.106h4.708c2.729 0 7.324.909 7.441 6.992.03 1.545-.243 4.463-2.401 6.661-1.713 1.746-4.227 2.632-7.476 2.632h-5.269a.32.32 0 0 1-.314-.382l2.996-15.645a.324.324 0 0 1 .315-.258zm23.839 9.292h-.745l-.734 3.887h.69c1.204 0 2.523-.093 3.202-.784.343-.347.506-.826.506-1.462v-.072c-.02-1.13-.84-1.569-2.919-1.569zm1.293-6.186h-.835l-.631 3.215h.845c.822 0 1.926-.127 2.518-.73.292-.299.436-.685.436-1.179v-.05c-.021-1.055-.838-1.256-2.333-1.256zm-3.657-3.106h4.641c3.206 0 5.071 1.478 5.121 4.057v.073c0 1.616-1.052 3.052-2.568 3.682 1.166.541 1.844 1.693 1.875 3.306v.118c0 1.281-.402 2.341-1.201 3.153-1.232 1.259-3.381 1.897-6.381 1.897h-4.458a.33.33 0 0 1-.25-.115.328.328 0 0 1-.065-.264l2.971-15.646a.323.323 0 0 1 .315-.261zm23.065 0a.32.32 0 0 0-.254.126l-4.612 6.104-2.252-6.022a.32.32 0 0 0-.301-.208h-3.316a.323.323 0 0 0-.322.321c0 .042.009.084.027.124 0 0 3.737 8.903 3.812 9.079l-1.225 6.381a.326.326 0 0 0 .066.264.32.32 0 0 0 .249.117h3.138a.316.316 0 0 0 .313-.26s1.197-6.245 1.23-6.399c.096-.123 7.347-9.105 7.347-9.105a.3.3 0 0 0 .07-.201.317.317 0 0 0-.029-.138.32.32 0 0 0-.288-.182h-3.653zM51.423 41.655c-1.665 3.511-1.002 6.393 1.481 6.437 2.484.044 5.851-2.764 7.514-6.272 1.667-3.514 1.003-6.395-1.481-6.44-2.483-.042-5.849 2.766-7.514 6.275zm20.242-12.674c.021.008.034.03.034.052a.115.115 0 0 1-.002.021c-1.485 4.208-3.948 8.994-6.389 12.625-5.142 7.635-12.524 12.451-16.483 10.754-3.958-1.697-3.006-9.265 2.142-16.905a36.494 36.494 0 0 1 3.743-4.672.065.065 0 0 0 .017-.041.059.059 0 0 0-.058-.059s-.007 0-.008.002a45.319 45.319 0 0 0-4.91.962c-.011 0-.022.009-.03.019-17.374 21.306-24.767 48.978-23.75 73.664a.057.057 0 0 1-.058.058c-.007 0-.015 0-.022-.003C15.649 101.332 8.165 91.437 7.385 78.91l-.01-.146c-1.292-22.289 16.475-45.12 39.69-50.997 8.996-2.278 17.495-1.677 24.6 1.214z" fill-rule="evenodd" clip-rule="evenodd" fill="#CD1330"/><path d="M65.097 89.095a53.757 53.757 0 0 1-5.267 3.231c-.008.002-.018.005-.026.005a.058.058 0 0 1-.059-.055c-.339-5.353-1.492-10.536-3.485-14.85-5.315-11.515-14.604-12.402-20.742-1.976-3.754 6.378-5.464 15.521-5.001 24.295 0 .025.017.047.039.053 6.511 2.04 14.013 2.264 22.016.244 23.182-5.906 40.915-28.715 39.625-50.981-1.135-19.559-16.563-32.197-36.012-31.024a.046.046 0 0 0-.036.016 105.427 105.427 0 0 0-5.323 5.796.06.06 0 0 0-.014.036c0 .033.026.059.058.059l.008-.001c11.396-1.442 20.531.874 26.492 5.623a.057.057 0 0 1 .022.044.064.064 0 0 1-.008.033C56.845 58.598 59.388 75.094 65.118 89.024c.002.007.004.014.004.022a.06.06 0 0 1-.025.049zM256.674 55.97c4.85 0 8.43 1.055 10.159 2.031a.059.059 0 0 1 .027.062l-1.674 8.78c-.002.019-.016.032-.032.041a.055.055 0 0 1-.053-.002c-1.961-1.068-5.352-2.207-8.992-2.207-3.057 0-5.047 1.28-5.047 3.423 0 1.537 1.523 2.915 4.748 4.487 4.2 2.099 8.945 5.206 8.945 10.826 0 3.667-1.225 6.735-3.634 9.125-3.205 3.182-8.404 4.917-14.656 4.868-4.809-.079-9.672-1.326-12.106-3.088-.018-.014-.025-.037-.023-.061l1.679-8.833a.064.064 0 0 1 .034-.042.064.064 0 0 1 .054.005c2.604 1.634 7.734 3.395 11.498 3.395 2.918 0 4.884-1.346 4.884-3.506 0-1.957-1.382-3.325-4.911-5.052-5.583-2.792-8.375-6.33-8.375-10.501-.001-8.205 6.989-13.751 17.475-13.751zm-65.435.082c2.977 0 6.014.519 8.125 1.381a.06.06 0 0 1 .036.065l-1.802 9.458a.058.058 0 0 1-.032.041c-.02.006-.039.009-.055-.003-1.819-1.017-3.924-1.508-6.434-1.508-8.391 0-13.39 7.314-13.39 14.363 0 5.981 3.995 8.124 7.719 8.124 3.33 0 6.158-.728 9.755-2.497a.058.058 0 0 1 .062.004c.02.014.026.037.022.058l-1.839 9.715a.064.064 0 0 1-.033.041c-2.727 1.319-6.947 2.111-11.288 2.111-10.183 0-16.748-6.379-16.748-16.259-.002-14.305 11.129-25.094 25.902-25.094zm-47.703 11.234c-3.167 3.167-5.543 9.117-5.54 13.853.001 4.158 1.542 6.747 4.224 6.747 4.289 0 7.982-4.485 9.253-11.053.286-1.467.574-2.96.782-4.287.21-1.327.338-2.498.301-3.315-.137-2.805-1.598-4.317-4.216-4.317-1.602-.001-3.263.828-4.804 2.372zm4.374 29.29c-.011-.017-.015-.033-.011-.05l.351-1.774c.314-1.597 1.608-3.8 2.099-4.522l.076-.132c.17-.384-.08-.833-.387-.97-.37-.159-.833-.036-1.006.35l-.048.146c-.21.85-.647 2.811-2.477 4.483-2.32 2.121-5.536 3.381-9.038 3.381-7.833 0-11.373-6.954-11.377-13.913-.005-7.905 3.101-15.734 8.303-20.941 4.357-4.36 9.981-6.664 16.269-6.664 4.783.02 8.322 1.403 10.539 4.091 3.282 3.977 3.012 9.948 2.194 14.289l-4.242 22.199a.057.057 0 0 1-.058.048h-11.14a.061.061 0 0 1-.047-.021zm136.333-8.036c6.191 0 10.738-8.789 10.738-16.548 0-1.874-.442-6.424-4.76-6.424-4.391 0-8.097 5.002-9.534 12.589-.491 2.594-1.868 10.383 3.556 10.383zm10.138-32.57c7.802 0 12.858 5.912 12.858 15.129 0 9.665-4.64 19.575-13.004 24.034-6.491 3.462-12.394 2.68-15.321.406-.699-.544-.869-1.977-.946-2.543l-.035-.148c-.13-.399-.604-.556-.97-.427-.319.114-.607.499-.478.897l.061.139c.533.947.935 1.706.786 2.491l-2.523 13.336a.06.06 0 0 1-.057.05H263.08a.057.057 0 0 1-.044-.022c-.012-.014-.016-.031-.012-.048l10.018-52.686a.06.06 0 0 1 .058-.048l10.263.007c.017 0 .033.008.046.021.011.015.015.033.011.048l-.345 1.819-.003.011c-.545 2.868-1.399 3.972-1.955 4.651l-.086.126c-.204.371.019.771.311.935.294.162.818.173 1.023-.196l.059-.138c.286-.829.956-2.875 2.581-4.27l.006-.004c2.695-2.306 5.968-3.57 9.37-3.57z"/><path d="M206.931 42.84h11.589c.017 0 .033.008.044.021a.063.063 0 0 1 .013.049l-6.046 31.799c-.003.021.002.04.022.05.018.008.04.003.052-.013l15.559-17.944a.055.055 0 0 1 .044-.021h12.709c.023 0 .046.014.056.036.002.008.005.017.005.024a.057.057 0 0 1-.015.038l-16.145 18.186 9.849 21.369c.006.009.006.017.006.023 0 .013-.005.023-.009.032a.06.06 0 0 1-.05.027h-12.547a.062.062 0 0 1-.054-.033l-9.526-21.126c-.007-.019-.023-.027-.043-.026-.021.001-.033.015-.038.034l-4.011 21.104a.059.059 0 0 1-.058.047h-11.588a.062.062 0 0 1-.045-.021c-.012-.016-.015-.033-.012-.049l10.183-53.561c.003-.026.028-.045.056-.045zm-78.884 13.049c.698 0 1.555.074 2.183.188.015.002.027.011.039.024a.063.063 0 0 1 .008.044l-2.269 11.425a.056.056 0 0 1-.025.036c-.012.01-.029.011-.044.01a9.095 9.095 0 0 0-1.836-.186c-8.003 0-11.126 7.821-12.339 14.292l-2.842 15.21a.057.057 0 0 1-.058.046H99.196a.056.056 0 0 1-.045-.021.058.058 0 0 1-.013-.049l7.622-40.081a.06.06 0 0 1 .059-.048h10.261c.018 0 .035.006.045.021a.06.06 0 0 1 .014.037l-.516 2.713-.006.029c-.487 2.561-1.275 4.071-1.78 4.79l-.076.132c-.178.38.102.775.407.917.305.142.795.106.973-.274l.051-.143c.227-.852.691-2.692 2.275-4.468 2.724-3.011 6.022-4.644 9.58-4.644zm277.021 12.05c0-2.05-1.699-3.344-4.236-3.344-3.927 0-6.755 2.476-8.255 5.391-1.084 2.097-1.467 2.306-2.466 2.935l-.127.085c-.322.27-.215.746 0 1.006.219.255.657.433.979.162l.106-.11c.811-.967 1.001-1.327 4.088-1.453 4.729-.189 7.562-.907 8.942-2.275.653-.647.969-1.434.969-2.397zm-16.264 12.342c1.072.97 1.792 2.39 1.91 2.841.198.764.507 1.528.927 2.115 1.525 1.929 4.225 2.979 7.571 2.979 4.891 0 9.128-1.188 13.737-3.844.021-.011.045-.011.063.003s.027.035.024.058l-1.858 9.767a.055.055 0 0 1-.029.041c-5.613 2.857-12.198 3.168-14.772 3.168-10.968 0-17.237-6.099-17.237-16.748 0-6.141 2.256-12.293 6.185-16.88 4.311-5.037 10.337-7.809 16.966-7.809 8.298 0 13.832 4.82 13.832 11.968 0 3.306-1.075 6.023-3.193 8.089-3.569 3.478-10.013 5.224-19.688 5.283-2.32-.002-2.849-1.173-3.26-1.951l-.082-.125c-.26-.334-.756-.262-1.021-.054-.263.206-.438.66-.181.989l.106.11zm27.369 12.17c-.218 2.43 1.554 4.372 3.979 4.372 2.473 0 4.681-2.022 4.901-4.497.219-2.435-1.555-4.377-3.979-4.377-2.47 0-4.676 2.021-4.901 4.502zm-.696-.062c.257-2.839 2.762-5.141 5.598-5.141 2.837 0 4.931 2.302 4.678 5.141-.258 2.834-2.764 5.135-5.601 5.135s-4.931-2.301-4.675-5.135zm4.012-3.034c.003-.011.013-.021.024-.021h1.287l.013.002c.331.005.548.007.716.019.226.017.395.053.568.113.654.217 1.026.734 1.026 1.396 0 .112-.013.23-.037.352-.149.811-.66 1.47-1.603 1.729l.825 2.436.001.008a.02.02 0 0 1-.004.013c-.005.009-.012.011-.021.011h-.838c-.01 0-.02-.007-.022-.015l-.788-2.32-.515.013h-.589l-.433 2.304c-.001.011-.014.019-.024.019h-.693c-.007 0-.016-.002-.021-.01-.003-.005-.007-.011-.007-.019l.439-2.324.004-.03.345-1.823.347-1.853zm1.175.725h-.564l-.212 1.136-.213 1.128h.618c.286-.006.474-.009.625-.018.166-.012.29-.036.426-.077.534-.154.909-.544 1.002-1.042.095-.492-.133-.88-.606-1.031a1.381 1.381 0 0 0-.395-.078c-.147-.01-.335-.011-.618-.018h-.063zm-47.49-34.028c2.978 0 6.014.519 8.124 1.381a.063.063 0 0 1 .037.065l-1.803 9.458a.068.068 0 0 1-.033.041c-.018.006-.038.009-.055-.003-1.817-1.017-3.925-1.508-6.433-1.508-8.391 0-13.392 7.314-13.392 14.363 0 5.981 3.996 8.124 7.721 8.124 3.33 0 6.158-.728 9.753-2.497a.06.06 0 0 1 .063.004.057.057 0 0 1 .021.058l-1.84 9.715c-.002.017-.016.033-.032.041-2.728 1.319-6.947 2.111-11.287 2.111-10.185 0-16.748-6.379-16.748-16.259.001-14.305 11.13-25.094 25.904-25.094zm-47.702 11.234c-3.167 3.167-5.545 9.117-5.54 13.853.001 4.158 1.542 6.747 4.223 6.747 4.288 0 7.983-4.485 9.255-11.053.284-1.467.572-2.96.781-4.287s.338-2.498.3-3.315c-.138-2.805-1.598-4.317-4.215-4.317-1.604-.001-3.263.828-4.804 2.372zm4.372 29.29c-.011-.017-.014-.033-.011-.05l.351-1.774c.315-1.597 1.609-3.8 2.099-4.522l.075-.132c.171-.384-.078-.833-.387-.97-.37-.159-.833-.036-1.006.35l-.047.146c-.211.85-.646 2.811-2.477 4.483-2.321 2.121-5.537 3.381-9.038 3.381-7.834 0-11.372-6.954-11.378-13.913-.004-7.905 3.101-15.734 8.304-20.941 4.356-4.36 9.981-6.664 16.268-6.664 4.785.02 8.322 1.403 10.539 4.091 3.282 3.977 3.014 9.948 2.194 14.289l-4.241 22.199a.058.058 0 0 1-.058.048H329.89a.068.068 0 0 1-.046-.021z"/></svg>