<?xml version="1.0" encoding="utf-8"?>
<!-- Generator: Adobe Illustrator 16.0.4, SVG Export Plug-In . SVG Version: 6.00 Build 0)  -->
<!DOCTYPE svg PUBLIC "-//W3C//DTD SVG 1.1//EN" "http://www.w3.org/Graphics/SVG/1.1/DTD/svg11.dtd">
<svg version="1.1" id="Layer_1" xmlns="http://www.w3.org/2000/svg" xmlns:xlink="http://www.w3.org/1999/xlink" x="0px" y="0px"
	 width="432px" height="126px" viewBox="0 0 432 126" enable-background="new 0 0 432 126" xml:space="preserve">
<g>
	<path fill-rule="evenodd" clip-rule="evenodd" fill="#CD1330" d="M204.683,16.269c-0.154,0-0.285,0.11-0.314,0.259l-2.995,15.645
		c-0.018,0.096,0.008,0.192,0.068,0.267c0.062,0.073,0.152,0.115,0.246,0.115h9.326c0.151,0,0.283-0.107,0.314-0.257l0.489-2.466
		c0.019-0.093-0.005-0.191-0.067-0.266c-0.061-0.074-0.151-0.117-0.247-0.117c0,0-5.12,0-5.801,0
		c0.114-0.591,0.636-3.333,0.715-3.752c0.479,0,5.227,0,5.227,0c0.155,0,0.287-0.111,0.316-0.263l0.444-2.466
		c0.003-0.019,0.007-0.038,0.007-0.057c0-0.074-0.027-0.147-0.075-0.204c-0.062-0.074-0.153-0.116-0.246-0.116c0,0-4.414,0-5.084,0
		c0.11-0.571,0.535-2.811,0.612-3.215c0.485,0,5.855,0,5.855,0c0.154,0,0.288-0.112,0.315-0.266l0.423-2.466
		c0.003-0.017,0.005-0.035,0.005-0.054c0-0.075-0.027-0.148-0.075-0.207c-0.062-0.071-0.15-0.113-0.246-0.113H204.683z"/>
	<path fill-rule="evenodd" clip-rule="evenodd" fill="#CD1330" d="M125.047,19.375h-0.722l-0.793,4.134h0.734
		c1.033,0,1.947-0.33,2.509-0.9c0.408-0.415,0.611-0.942,0.611-1.565v-0.056C127.365,19.873,126.644,19.375,125.047,19.375z
		 M121.391,16.269h2.645c2.507,0,7.173,0,7.257,4.371v0.133c0,1.545-0.519,2.889-1.504,3.893c-1.233,1.257-3.122,1.949-5.322,1.949
		h-1.551l-1.091,5.679c-0.028,0.152-0.162,0.26-0.314,0.26h-3.138c-0.096,0-0.187-0.042-0.248-0.117
		c-0.061-0.072-0.086-0.17-0.067-0.264l3.02-15.645C121.106,16.376,121.238,16.269,121.391,16.269z"/>
	<path fill-rule="evenodd" clip-rule="evenodd" fill="#CD1330" d="M136.98,26.176c0.033,1.712,0.852,3.542,3.049,3.542
		c1.117,0,2.12-0.445,2.982-1.322c1.522-1.554,2.171-4.018,2.136-5.771c-0.031-1.702-0.861-3.52-3.092-3.52
		c-1.141,0-2.148,0.441-2.999,1.307C137.754,21.739,136.939,24.002,136.98,26.176z M135.478,19.026
		c1.716-2.008,3.943-3.027,6.622-3.027c4.343,0,6.885,2.534,6.969,6.949c0.05,2.653-0.861,5.188-2.571,7.145
		c-1.574,1.787-3.935,2.731-6.824,2.731c-3.875,0-6.532-2.739-6.609-6.814C133.015,23.425,133.872,20.946,135.478,19.026z"/>
	<path fill-rule="evenodd" clip-rule="evenodd" fill="#CD1330" d="M170.185,16.269c-0.126,0-0.241,0.075-0.292,0.19
		c0,0-3.908,8.828-4.772,10.783c-0.052-2.104-0.264-10.663-0.264-10.663c-0.003-0.173-0.145-0.311-0.32-0.311h-4.213
		c-0.128,0-0.246,0.077-0.296,0.196c0,0-3.673,8.862-4.474,10.798c-0.122-2.065-0.626-10.693-0.626-10.693
		c-0.009-0.17-0.15-0.301-0.318-0.301h-3.139c-0.09,0-0.175,0.037-0.236,0.103c-0.061,0.065-0.09,0.154-0.083,0.245l1.286,15.644
		c0.013,0.168,0.153,0.294,0.319,0.294h3.878c0.129,0,0.245-0.077,0.296-0.195c0,0,3.893-9.233,4.747-11.256
		c0.068,2.164,0.353,11.141,0.353,11.141c0.005,0.174,0.147,0.311,0.32,0.311h3.922c0.126,0,0.239-0.073,0.292-0.187l7.165-15.645
		c0.046-0.099,0.039-0.215-0.022-0.306c-0.059-0.092-0.159-0.147-0.269-0.147H170.185z"/>
	<path fill-rule="evenodd" clip-rule="evenodd" fill="#CD1330" d="M176.694,16.269c-0.153,0-0.287,0.11-0.314,0.259l-2.995,15.645
		c-0.018,0.096,0.007,0.192,0.068,0.267c0.06,0.073,0.151,0.115,0.246,0.115h9.324c0.153,0,0.284-0.107,0.315-0.257l0.489-2.466
		c0.02-0.093-0.005-0.191-0.065-0.266c-0.062-0.074-0.152-0.117-0.248-0.117c0,0-5.12,0-5.8,0c0.113-0.591,0.633-3.333,0.713-3.752
		c0.48,0,5.228,0,5.228,0c0.154,0,0.287-0.111,0.314-0.263l0.447-2.466c0.002-0.019,0.005-0.038,0.005-0.057
		c0-0.074-0.026-0.147-0.075-0.204c-0.061-0.074-0.15-0.116-0.245-0.116c0,0-4.415,0-5.083,0c0.108-0.571,0.535-2.811,0.612-3.215
		c0.486,0,5.853,0,5.853,0c0.156,0,0.29-0.112,0.317-0.266l0.423-2.466c0.002-0.017,0.005-0.035,0.005-0.054
		c0-0.075-0.026-0.148-0.076-0.207c-0.06-0.071-0.151-0.113-0.244-0.113H176.694z"/>
	<path fill-rule="evenodd" clip-rule="evenodd" fill="#CD1330" d="M193.999,19.375h-1.035l-0.672,3.573h0.757
		c0.748,0,2.113-0.112,2.847-0.859c0.339-0.346,0.505-0.784,0.505-1.337v-0.055C196.377,19.464,195.478,19.375,193.999,19.375z
		 M193.785,16.269c2.869-0.001,6.443-0.001,6.521,4.013v0.105c0,1.185-0.384,2.211-1.118,2.971c-0.62,0.642-1.479,1.079-2.479,1.284
		c0.334,0.286,0.582,0.696,0.714,1.213l1.623,6.299c0.007,0.026,0.011,0.054,0.011,0.081c0,0.069-0.023,0.139-0.068,0.195
		c-0.061,0.077-0.153,0.124-0.253,0.124h-3.296c-0.148,0-0.279-0.103-0.312-0.248l-0.832-3.674l-0.154-0.727
		c-0.259-1.271-0.375-1.851-1.562-1.851h-0.922l-1.193,6.24c-0.03,0.152-0.161,0.26-0.315,0.26h-3.137
		c-0.097,0-0.187-0.042-0.247-0.115c-0.062-0.074-0.086-0.17-0.067-0.264l2.972-15.646c0.028-0.151,0.161-0.261,0.314-0.261H193.785
		z"/>
	<path fill-rule="evenodd" clip-rule="evenodd" fill="#CD1330" d="M221.56,19.375h-0.809l-1.917,10.073h1.07
		c1.997,0,3.527-0.53,4.557-1.576c1.052-1.073,1.585-2.686,1.585-4.8l-0.004-0.245C226,20.665,224.325,19.375,221.56,19.375z
		 M217.814,16.269h4.708c2.729,0,7.324,0.909,7.441,6.992c0.03,1.545-0.243,4.463-2.401,6.661c-1.713,1.746-4.227,2.632-7.476,2.632
		h-5.269c-0.094,0-0.184-0.042-0.245-0.115c-0.062-0.075-0.086-0.17-0.069-0.267l2.996-15.645
		C217.53,16.379,217.661,16.269,217.814,16.269z"/>
	<path fill-rule="evenodd" clip-rule="evenodd" fill="#CD1330" d="M241.653,25.561h-0.745l-0.734,3.887h0.69
		c1.204,0,2.523-0.093,3.202-0.784c0.343-0.347,0.506-0.826,0.506-1.462v-0.072C244.552,26,243.732,25.561,241.653,25.561z
		 M242.946,19.375h-0.835l-0.631,3.215h0.845c0.822,0,1.926-0.127,2.518-0.73c0.292-0.299,0.436-0.685,0.436-1.179v-0.05
		C245.258,19.576,244.441,19.375,242.946,19.375z M239.289,16.269h4.641c3.206,0,5.071,1.478,5.121,4.057v0.073
		c0,1.616-1.052,3.052-2.568,3.682c1.166,0.541,1.844,1.693,1.875,3.306v0.118c0,1.281-0.402,2.341-1.201,3.153
		c-1.232,1.259-3.381,1.897-6.381,1.897h-4.458c-0.096,0-0.187-0.042-0.25-0.115c-0.059-0.074-0.082-0.17-0.065-0.264l2.971-15.646
		C239.006,16.379,239.134,16.269,239.289,16.269z"/>
	<path fill-rule="evenodd" clip-rule="evenodd" fill="#CD1330" d="M262.354,16.269c-0.099,0-0.195,0.047-0.254,0.126
		c0,0-4.005,5.301-4.612,6.104c-0.343-0.917-2.252-6.022-2.252-6.022c-0.046-0.125-0.166-0.208-0.301-0.208h-3.316
		c-0.107,0-0.209,0.054-0.268,0.143c-0.035,0.054-0.054,0.116-0.054,0.178c0,0.042,0.009,0.084,0.027,0.124
		c0,0,3.737,8.903,3.812,9.079c-0.035,0.185-1.225,6.381-1.225,6.381c-0.004,0.021-0.006,0.042-0.006,0.062
		c0,0.074,0.027,0.146,0.072,0.202c0.062,0.075,0.152,0.117,0.249,0.117h3.138c0.153,0,0.286-0.107,0.313-0.26
		c0,0,1.197-6.245,1.23-6.399c0.096-0.123,7.347-9.105,7.347-9.105c0.05-0.057,0.07-0.129,0.07-0.201
		c0-0.047-0.008-0.094-0.029-0.138c-0.054-0.112-0.166-0.182-0.288-0.182H262.354z"/>
</g>
<g>
	<g>
		<path fill-rule="evenodd" clip-rule="evenodd" fill="#CD1330" d="M51.423,41.655c-1.665,3.511-1.002,6.393,1.481,6.437
			c2.484,0.044,5.851-2.764,7.514-6.272c1.667-3.514,1.003-6.395-1.481-6.44C56.454,35.338,53.088,38.146,51.423,41.655z
			 M71.665,28.981c0.021,0.008,0.034,0.03,0.034,0.052c0,0.008-0.001,0.016-0.002,0.021c-1.485,4.208-3.948,8.994-6.389,12.625
			c-5.142,7.635-12.524,12.451-16.483,10.754c-3.958-1.697-3.006-9.265,2.142-16.905c1.158-1.714,2.427-3.285,3.743-4.672
			c0.01-0.012,0.017-0.026,0.017-0.041c0-0.032-0.026-0.059-0.058-0.059c0,0-0.007,0-0.008,0.002
			c-1.617,0.224-3.256,0.543-4.91,0.962c-0.011,0-0.022,0.009-0.03,0.019c-17.374,21.306-24.767,48.978-23.75,73.664l0,0
			c0,0.033-0.025,0.058-0.058,0.058c-0.007,0-0.015,0-0.022-0.003C15.649,101.332,8.165,91.437,7.385,78.91l-0.01-0.146
			c-1.292-22.289,16.475-45.12,39.69-50.997C56.061,25.489,64.56,26.09,71.665,28.981z"/>
		<path d="M65.097,89.095c-1.687,1.172-3.448,2.256-5.267,3.231c-0.008,0.002-0.018,0.005-0.026,0.005
			c-0.032,0-0.058-0.024-0.059-0.055c-0.339-5.353-1.492-10.536-3.485-14.85c-5.315-11.515-14.604-12.402-20.742-1.976
			c-3.754,6.378-5.464,15.521-5.001,24.295c0,0.025,0.017,0.047,0.039,0.053c6.511,2.04,14.013,2.264,22.016,0.244
			c23.182-5.906,40.915-28.715,39.625-50.981c-1.135-19.559-16.563-32.197-36.012-31.024c-0.014,0-0.026,0.005-0.036,0.016
			c-1.892,1.913-3.662,3.845-5.323,5.796c-0.008,0.01-0.014,0.023-0.014,0.036c0,0.033,0.026,0.059,0.058,0.059
			c0.001,0,0.005,0,0.008-0.001c11.396-1.442,20.531,0.874,26.492,5.623c0.014,0.011,0.022,0.028,0.022,0.044
			c0,0.013-0.003,0.025-0.008,0.033C56.845,58.598,59.388,75.094,65.118,89.024c0.002,0.007,0.004,0.014,0.004,0.022
			C65.122,89.067,65.112,89.084,65.097,89.095z"/>
	</g>
	<g>
		<path d="M256.674,55.97c4.85,0,8.43,1.055,10.159,2.031c0.021,0.013,0.032,0.037,0.027,0.062l-1.674,8.78
			c-0.002,0.019-0.016,0.032-0.032,0.041c-0.017,0.008-0.036,0.008-0.053-0.002c-1.961-1.068-5.352-2.207-8.992-2.207
			c-3.057,0-5.047,1.28-5.047,3.423c0,1.537,1.523,2.915,4.748,4.487c4.2,2.099,8.945,5.206,8.945,10.826
			c0,3.667-1.225,6.735-3.634,9.125c-3.205,3.182-8.404,4.917-14.656,4.868c-4.809-0.079-9.672-1.326-12.106-3.088
			c-0.018-0.014-0.025-0.037-0.023-0.061l1.679-8.833c0.003-0.016,0.017-0.034,0.034-0.042c0.019-0.007,0.037-0.004,0.054,0.005
			c2.604,1.634,7.734,3.395,11.498,3.395c2.918,0,4.884-1.346,4.884-3.506c0-1.957-1.382-3.325-4.911-5.052
			c-5.583-2.792-8.375-6.33-8.375-10.501C239.198,61.516,246.188,55.97,256.674,55.97z"/>
		<path d="M191.239,56.052c2.977,0,6.014,0.519,8.125,1.381c0.026,0.011,0.041,0.038,0.036,0.065l-1.802,9.458
			c-0.004,0.018-0.015,0.033-0.032,0.041c-0.02,0.006-0.039,0.009-0.055-0.003c-1.819-1.017-3.924-1.508-6.434-1.508
			c-8.391,0-13.39,7.314-13.39,14.363c0,5.981,3.995,8.124,7.719,8.124c3.33,0,6.158-0.728,9.755-2.497
			c0.021-0.011,0.044-0.009,0.062,0.004c0.02,0.014,0.026,0.037,0.022,0.058l-1.839,9.715c-0.004,0.017-0.017,0.033-0.033,0.041
			c-2.727,1.319-6.947,2.111-11.288,2.111c-10.183,0-16.748-6.379-16.748-16.259C165.335,66.841,176.466,56.052,191.239,56.052z"/>
		<path d="M143.536,67.286c-3.167,3.167-5.543,9.117-5.54,13.853c0.001,4.158,1.542,6.747,4.224,6.747
			c4.289,0,7.982-4.485,9.253-11.053c0.286-1.467,0.574-2.96,0.782-4.287c0.21-1.327,0.338-2.498,0.301-3.315
			c-0.137-2.805-1.598-4.317-4.216-4.317C146.738,64.913,145.077,65.742,143.536,67.286z M147.91,96.576
			c-0.011-0.017-0.015-0.033-0.011-0.05l0.351-1.774c0.314-1.597,1.608-3.8,2.099-4.522l0.076-0.132
			c0.17-0.384-0.08-0.833-0.387-0.97c-0.37-0.159-0.833-0.036-1.006,0.35l-0.048,0.146c-0.21,0.85-0.647,2.811-2.477,4.483
			c-2.32,2.121-5.536,3.381-9.038,3.381c-7.833,0-11.373-6.954-11.377-13.913c-0.005-7.905,3.101-15.734,8.303-20.941
			c4.357-4.36,9.981-6.664,16.269-6.664c4.783,0.02,8.322,1.403,10.539,4.091c3.282,3.977,3.012,9.948,2.194,14.289l-4.242,22.199
			c-0.004,0.027-0.027,0.048-0.058,0.048h-11.14C147.937,96.597,147.92,96.588,147.91,96.576z"/>
		<path d="M284.243,88.54c6.191,0,10.738-8.789,10.738-16.548c0-1.874-0.442-6.424-4.76-6.424c-4.391,0-8.097,5.002-9.534,12.589
			C280.196,80.751,278.819,88.54,284.243,88.54z M294.381,55.97c7.802,0,12.858,5.912,12.858,15.129
			c0,9.665-4.64,19.575-13.004,24.034c-6.491,3.462-12.394,2.68-15.321,0.406c-0.699-0.544-0.869-1.977-0.946-2.543l-0.035-0.148
			c-0.13-0.399-0.604-0.556-0.97-0.427c-0.319,0.114-0.607,0.499-0.478,0.897l0.061,0.139c0.533,0.947,0.935,1.706,0.786,2.491
			l-2.523,13.336c-0.004,0.027-0.029,0.05-0.057,0.05H263.08c-0.017,0-0.032-0.008-0.044-0.022
			c-0.012-0.014-0.016-0.031-0.012-0.048l10.018-52.686c0.005-0.027,0.03-0.048,0.058-0.048l10.263,0.007
			c0.017,0,0.033,0.008,0.046,0.021c0.011,0.015,0.015,0.033,0.011,0.048l-0.345,1.819l-0.003,0.011
			c-0.545,2.868-1.399,3.972-1.955,4.651l-0.086,0.126c-0.204,0.371,0.019,0.771,0.311,0.935c0.294,0.162,0.818,0.173,1.023-0.196
			l0.059-0.138c0.286-0.829,0.956-2.875,2.581-4.27l0.006-0.004C287.706,57.234,290.979,55.97,294.381,55.97z"/>
		<path d="M206.931,42.84h11.589c0.017,0,0.033,0.008,0.044,0.021c0.013,0.017,0.015,0.033,0.013,0.049l-6.046,31.799
			c-0.003,0.021,0.002,0.04,0.022,0.05c0.018,0.008,0.04,0.003,0.052-0.013l15.559-17.944c0.011-0.014,0.027-0.021,0.044-0.021
			h12.709c0.023,0,0.046,0.014,0.056,0.036c0.002,0.008,0.005,0.017,0.005,0.024c0,0.013-0.005,0.027-0.015,0.038l-16.145,18.186
			l9.849,21.369c0.006,0.009,0.006,0.017,0.006,0.023c0,0.013-0.005,0.023-0.009,0.032c-0.013,0.018-0.03,0.027-0.05,0.027h-12.547
			c-0.022,0-0.044-0.013-0.054-0.033l-9.526-21.126c-0.007-0.019-0.023-0.027-0.043-0.026c-0.021,0.001-0.033,0.015-0.038,0.034
			l-4.011,21.104c-0.006,0.027-0.029,0.047-0.058,0.047h-11.588c-0.018,0-0.034-0.009-0.045-0.021
			c-0.012-0.016-0.015-0.033-0.012-0.049l10.183-53.561C206.878,42.859,206.903,42.84,206.931,42.84z"/>
		<path d="M128.047,55.889c0.698,0,1.555,0.074,2.183,0.188c0.015,0.002,0.027,0.011,0.039,0.024
			c0.008,0.015,0.011,0.028,0.008,0.044l-2.269,11.425c-0.003,0.014-0.011,0.027-0.025,0.036c-0.012,0.01-0.029,0.011-0.044,0.01
			c-0.412-0.087-1.066-0.186-1.836-0.186c-8.003,0-11.126,7.821-12.339,14.292l-2.842,15.21c-0.005,0.027-0.029,0.046-0.058,0.046
			H99.196c-0.018,0-0.036-0.008-0.045-0.021c-0.011-0.014-0.017-0.031-0.013-0.049l7.622-40.081c0.005-0.027,0.03-0.048,0.059-0.048
			h10.261c0.018,0,0.035,0.006,0.045,0.021c0.008,0.01,0.014,0.023,0.014,0.037l-0.516,2.713l-0.006,0.029
			c-0.487,2.561-1.275,4.071-1.78,4.79l-0.076,0.132c-0.178,0.38,0.102,0.775,0.407,0.917c0.305,0.142,0.795,0.106,0.973-0.274
			l0.051-0.143c0.227-0.852,0.691-2.692,2.275-4.468C121.191,57.522,124.489,55.889,128.047,55.889z"/>
		<path d="M405.068,67.939c0-2.05-1.699-3.344-4.236-3.344c-3.927,0-6.755,2.476-8.255,5.391c-1.084,2.097-1.467,2.306-2.466,2.935
			l-0.127,0.085c-0.322,0.27-0.215,0.746,0,1.006c0.219,0.255,0.657,0.433,0.979,0.162l0.106-0.11
			c0.811-0.967,1.001-1.327,4.088-1.453c4.729-0.189,7.562-0.907,8.942-2.275C404.752,69.689,405.068,68.902,405.068,67.939z
			 M388.804,80.281c1.072,0.97,1.792,2.39,1.91,2.841c0.198,0.764,0.507,1.528,0.927,2.115c1.525,1.929,4.225,2.979,7.571,2.979
			c4.891,0,9.128-1.188,13.737-3.844c0.021-0.011,0.045-0.011,0.063,0.003s0.027,0.035,0.024,0.058l-1.858,9.767
			c-0.003,0.019-0.014,0.033-0.029,0.041c-5.613,2.857-12.198,3.168-14.772,3.168c-10.968,0-17.237-6.099-17.237-16.748
			c0-6.141,2.256-12.293,6.185-16.88c4.311-5.037,10.337-7.809,16.966-7.809c8.298,0,13.832,4.82,13.832,11.968
			c0,3.306-1.075,6.023-3.193,8.089c-3.569,3.478-10.013,5.224-19.688,5.283c-2.32-0.002-2.849-1.173-3.26-1.951l-0.082-0.125
			c-0.26-0.334-0.756-0.262-1.021-0.054c-0.263,0.206-0.438,0.66-0.181,0.989L388.804,80.281z"/>
		<path d="M416.173,92.451c-0.218,2.43,1.554,4.372,3.979,4.372c2.473,0,4.681-2.022,4.901-4.497
			c0.219-2.435-1.555-4.377-3.979-4.377C418.604,87.949,416.398,89.97,416.173,92.451z M415.477,92.389
			c0.257-2.839,2.762-5.141,5.598-5.141c2.837,0,4.931,2.302,4.678,5.141c-0.258,2.834-2.764,5.135-5.601,5.135
			S415.221,95.223,415.477,92.389z M419.489,89.355c0.003-0.011,0.013-0.021,0.024-0.021h1.287l0.013,0.002
			c0.331,0.005,0.548,0.007,0.716,0.019c0.226,0.017,0.395,0.053,0.568,0.113c0.654,0.217,1.026,0.734,1.026,1.396
			c0,0.112-0.013,0.23-0.037,0.352c-0.149,0.811-0.66,1.47-1.603,1.729l0.825,2.436c0,0.003,0.001,0.004,0.001,0.008
			c0,0.005-0.001,0.009-0.004,0.013c-0.005,0.009-0.012,0.011-0.021,0.011h-0.838c-0.01,0-0.02-0.007-0.022-0.015l-0.788-2.32
			l-0.515,0.013h-0.02h-0.569l-0.433,2.304c-0.001,0.011-0.014,0.019-0.024,0.019h-0.693c-0.007,0-0.016-0.002-0.021-0.01
			c-0.003-0.005-0.007-0.011-0.007-0.019l0.439-2.324l0.004-0.03l0.345-1.823L419.489,89.355z M420.664,90.08H420.1l-0.212,1.136
			l-0.213,1.128h0.555h0.063c0.286-0.006,0.474-0.009,0.625-0.018c0.166-0.012,0.29-0.036,0.426-0.077
			c0.534-0.154,0.909-0.544,1.002-1.042c0.095-0.492-0.133-0.88-0.606-1.031c-0.121-0.045-0.229-0.064-0.395-0.078
			c-0.147-0.01-0.335-0.011-0.618-0.018H420.664z"/>
		<path d="M373.174,56.052c2.978,0,6.014,0.519,8.124,1.381c0.025,0.011,0.041,0.038,0.037,0.065l-1.803,9.458
			c-0.006,0.018-0.017,0.033-0.033,0.041c-0.018,0.006-0.038,0.009-0.055-0.003c-1.817-1.017-3.925-1.508-6.433-1.508
			c-8.391,0-13.392,7.314-13.392,14.363c0,5.981,3.996,8.124,7.721,8.124c3.33,0,6.158-0.728,9.753-2.497
			c0.022-0.011,0.046-0.009,0.063,0.004c0.018,0.014,0.026,0.037,0.021,0.058l-1.84,9.715c-0.002,0.017-0.016,0.033-0.032,0.041
			c-2.728,1.319-6.947,2.111-11.287,2.111c-10.185,0-16.748-6.379-16.748-16.259C347.271,66.841,358.4,56.052,373.174,56.052z"/>
		<path d="M325.472,67.286c-3.167,3.167-5.545,9.117-5.54,13.853c0.001,4.158,1.542,6.747,4.223,6.747
			c4.288,0,7.983-4.485,9.255-11.053c0.284-1.467,0.572-2.96,0.781-4.287s0.338-2.498,0.3-3.315
			c-0.138-2.805-1.598-4.317-4.215-4.317C328.672,64.913,327.013,65.742,325.472,67.286z M329.844,96.576
			c-0.011-0.017-0.014-0.033-0.011-0.05l0.351-1.774c0.315-1.597,1.609-3.8,2.099-4.522l0.075-0.132
			c0.171-0.384-0.078-0.833-0.387-0.97c-0.37-0.159-0.833-0.036-1.006,0.35l-0.047,0.146c-0.211,0.85-0.646,2.811-2.477,4.483
			c-2.321,2.121-5.537,3.381-9.038,3.381c-7.834,0-11.372-6.954-11.378-13.913c-0.004-7.905,3.101-15.734,8.304-20.941
			c4.356-4.36,9.981-6.664,16.268-6.664c4.785,0.02,8.322,1.403,10.539,4.091c3.282,3.977,3.014,9.948,2.194,14.289l-4.241,22.199
			c-0.005,0.027-0.028,0.048-0.058,0.048h-11.141C329.873,96.597,329.856,96.588,329.844,96.576z"/>
	</g>
</g>
<g display="none">
	<g display="inline">
		<g>
			<path fill-rule="evenodd" clip-rule="evenodd" fill="#CD1330" d="M51.421,41.656c-1.665,3.512-1.001,6.393,1.482,6.437
				c2.484,0.045,5.851-2.765,7.514-6.271c1.667-3.514,1.005-6.395-1.482-6.441C56.452,35.339,53.086,38.146,51.421,41.656z
				 M71.666,28.983c0.018,0.007,0.031,0.028,0.031,0.053c0,0.008,0,0.014-0.003,0.02c-1.483,4.207-3.946,8.995-6.388,12.625
				c-5.14,7.636-12.522,12.451-16.482,10.753c-3.959-1.697-3.006-9.266,2.141-16.903c1.16-1.715,2.429-3.286,3.745-4.674
				c0.011-0.01,0.018-0.024,0.018-0.042c0-0.03-0.027-0.056-0.061-0.056l-0.007,0.001c-1.618,0.224-3.257,0.542-4.908,0.961
				c-0.014,0.001-0.023,0.009-0.033,0.019c-17.372,21.306-24.767,48.977-23.749,73.663v0.001c0,0.034-0.026,0.058-0.059,0.058
				c0,0-0.015,0-0.021-0.003C15.646,101.33,8.164,91.437,7.384,78.91l-0.009-0.146C6.083,56.477,23.851,33.646,47.064,27.768
				C56.061,25.49,64.56,26.091,71.666,28.983z"/>
			<path fill-rule="evenodd" clip-rule="evenodd" d="M65.097,89.094c-1.689,1.174-3.449,2.256-5.268,3.231
				c-0.007,0.003-0.016,0.007-0.016,0.007c-0.04,0-0.067-0.024-0.07-0.058c-0.339-5.35-1.49-10.534-3.485-14.849
				c-5.314-11.515-14.601-12.4-20.739-1.976c-3.757,6.38-5.468,15.521-5.002,24.296c0,0.024,0.016,0.047,0.04,0.053
				c6.511,2.04,14.012,2.263,22.013,0.244c23.184-5.907,40.916-28.715,39.625-50.979C91.061,29.505,75.63,16.866,56.181,18.038
				c0,0-0.024,0.006-0.035,0.017c-1.889,1.914-3.659,3.847-5.321,5.796c-0.011,0.011-0.014,0.023-0.014,0.036
				c0,0.033,0.027,0.06,0.057,0.06c0,0,0.005,0,0.009-0.002c11.392-1.442,20.529,0.873,26.49,5.622
				c0.013,0.012,0.024,0.028,0.024,0.045c0,0.012-0.005,0.022-0.012,0.032C56.846,58.597,59.386,75.095,65.117,89.025
				c0.002,0.007,0.002,0.013,0.002,0.021C65.119,89.064,65.11,89.085,65.097,89.094z"/>
		</g>
		<g>
			<g>
				<path d="M325.469,67.285c-3.163,3.168-5.543,9.117-5.541,13.854c0.004,4.157,1.547,6.747,4.224,6.747
					c4.288,0,7.984-4.486,9.258-11.053c0.284-1.466,0.574-2.961,0.782-4.288c0.207-1.326,0.335-2.497,0.298-3.315
					c-0.138-2.803-1.599-4.316-4.216-4.316C328.671,64.913,327.01,65.743,325.469,67.285z M329.846,96.575
					c-0.013-0.016-0.017-0.034-0.013-0.048l0.979-4.969c0.012-0.077-0.026-0.137-0.097-0.148c-0.056-0.012-0.101,0.019-0.128,0.062
					c-2.167,3.672-6.413,6.015-11.184,6.015c-7.836,0-11.373-6.952-11.377-13.912c-0.008-7.907,3.097-15.732,8.302-20.94
					c4.358-4.359,9.981-6.666,16.27-6.666c4.784,0.021,8.317,1.406,10.537,4.093c3.283,3.975,3.012,9.946,2.195,14.287l-4.243,22.2
					c-0.003,0.027-0.029,0.047-0.056,0.047h-11.145C329.873,96.596,329.854,96.588,329.846,96.575z"/>
				<path fill-rule="evenodd" clip-rule="evenodd" d="M256.674,55.969c4.848,0,8.427,1.057,10.157,2.034
					c0.021,0.011,0.034,0.035,0.025,0.061l-1.669,8.779c-0.005,0.02-0.018,0.033-0.034,0.042c-0.016,0.008-0.036,0.008-0.053-0.002
					c-1.961-1.067-5.351-2.208-8.994-2.208c-3.056,0-5.043,1.28-5.043,3.424c0,1.538,1.523,2.915,4.747,4.487
					c4.2,2.098,8.944,5.207,8.944,10.825c0,3.668-1.223,6.735-3.633,9.127c-3.204,3.181-8.403,4.916-14.659,4.868
					c-4.806-0.079-9.669-1.328-12.105-3.09c-0.017-0.013-0.027-0.035-0.023-0.059l1.678-8.833c0.004-0.018,0.018-0.035,0.037-0.043
					c0.017-0.006,0.036-0.005,0.053,0.004c2.604,1.635,7.733,3.394,11.5,3.394c2.918,0,4.881-1.345,4.881-3.504
					c0-1.958-1.382-3.326-4.911-5.052c-5.581-2.792-8.373-6.33-8.373-10.501C239.198,61.516,246.188,55.969,256.674,55.969z"/>
				<path fill-rule="evenodd" clip-rule="evenodd" d="M373.173,56.052c2.977,0,6.014,0.518,8.124,1.383
					c0.025,0.011,0.046,0.037,0.037,0.064l-1.804,9.457c-0.005,0.018-0.015,0.033-0.033,0.04c-0.015,0.008-0.035,0.008-0.054-0.002
					c-1.818-1.017-3.922-1.508-6.431-1.508c-8.393,0-13.393,7.314-13.393,14.364c0,5.979,3.996,8.123,7.722,8.123
					c3.329,0,6.158-0.728,9.752-2.499c0.019-0.009,0.048-0.008,0.062,0.005c0.016,0.014,0.027,0.037,0.023,0.059l-1.843,9.714
					c-0.003,0.017-0.014,0.034-0.03,0.042c-2.727,1.318-6.945,2.112-11.289,2.112c-10.183,0-16.748-6.381-16.748-16.261
					C347.27,66.84,358.401,56.052,373.173,56.052z"/>
				<path fill-rule="evenodd" clip-rule="evenodd" d="M191.236,56.052c2.978,0,6.014,0.518,8.124,1.383
					c0.026,0.011,0.043,0.037,0.035,0.064l-1.799,9.457c-0.007,0.018-0.018,0.033-0.034,0.04c-0.019,0.008-0.038,0.008-0.055-0.002
					c-1.815-1.017-3.924-1.508-6.433-1.508c-8.39,0-13.392,7.314-13.392,14.364c0,5.979,3.997,8.123,7.722,8.123
					c3.329,0,6.157-0.728,9.752-2.499c0.021-0.009,0.046-0.008,0.062,0.005c0.021,0.014,0.026,0.037,0.023,0.059l-1.84,9.714
					c-0.005,0.017-0.018,0.034-0.033,0.042c-2.727,1.318-6.946,2.112-11.29,2.112c-10.183,0-16.749-6.381-16.749-16.261
					C165.332,66.84,176.465,56.052,191.236,56.052z"/>
				<path d="M128.044,55.89c0.699,0,1.558,0.074,2.183,0.187c0.016,0.004,0.03,0.012,0.04,0.026
					c0.006,0.014,0.009,0.029,0.006,0.044l-2.267,11.423c-0.003,0.016-0.009,0.028-0.023,0.036c-0.014,0.01-0.029,0.012-0.046,0.01
					c-0.413-0.086-1.065-0.187-1.836-0.187c-8.002,0-11.125,7.824-12.337,14.292l-2.842,15.211c-0.006,0.029-0.028,0.048-0.06,0.048
					H99.194c-0.019,0-0.033-0.008-0.043-0.022c-0.013-0.013-0.016-0.031-0.013-0.049l7.623-40.078
					c0.003-0.029,0.029-0.049,0.055-0.049l10.265-0.001c0.016,0,0.032,0.006,0.045,0.021c0.006,0.011,0.014,0.023,0.014,0.036
					l-1.309,6.891c-0.011,0.045,0,0.107,0.06,0.137c0.058,0.031,0.124,0.01,0.164-0.051C119.122,58.726,123.357,55.89,128.044,55.89
					z"/>
				<path d="M143.533,67.285c-3.164,3.168-5.542,9.117-5.538,13.854c0,4.157,1.542,6.747,4.223,6.747
					c4.29,0,7.981-4.486,9.255-11.053c0.283-1.466,0.574-2.961,0.781-4.288c0.209-1.326,0.336-2.497,0.302-3.315
					c-0.141-2.803-1.6-4.316-4.217-4.316C146.737,64.913,145.077,65.743,143.533,67.285z M147.909,96.575
					c-0.013-0.016-0.016-0.034-0.013-0.048l0.983-4.969c0.013-0.077-0.031-0.137-0.098-0.148c-0.054-0.012-0.104,0.019-0.131,0.062
					c-2.165,3.672-6.407,6.015-11.183,6.015c-7.832,0-11.374-6.952-11.377-13.912c-0.006-7.907,3.101-15.732,8.303-20.94
					c4.357-4.359,9.983-6.666,16.27-6.666c4.784,0.021,8.321,1.406,10.536,4.093c3.285,3.975,3.015,9.946,2.197,14.287l-4.244,22.2
					c-0.002,0.027-0.025,0.047-0.055,0.047h-11.141C147.935,96.596,147.919,96.588,147.909,96.575z"/>
				<path d="M284.242,88.541c6.192,0,10.738-8.791,10.738-16.55c0-1.872-0.441-6.425-4.761-6.425c-4.392,0-8.097,5.004-9.535,12.59
					C280.192,80.752,278.819,88.541,284.242,88.541z M294.38,55.969c7.801,0,12.861,5.914,12.861,15.131
					c0,9.664-4.642,19.574-13.005,24.033c-7.621,4.062-14.431,2.281-16.566-0.901c-0.005-0.008-0.015-0.008-0.015,0.002
					l-2.849,15.052c-0.004,0.026-0.029,0.048-0.058,0.048h-11.67c-0.016,0-0.031-0.009-0.046-0.021
					c-0.009-0.013-0.013-0.03-0.009-0.048l10.016-52.686c0.006-0.026,0.029-0.048,0.06-0.048l10.262,0.007
					c0.019,0,0.034,0.009,0.045,0.021c0.012,0.015,0.015,0.033,0.012,0.049l-1.02,5.363c-0.012,0.059-0.005,0.131,0.055,0.155
					c0.056,0.023,0.118,0.002,0.16-0.056l0.052-0.065C285.67,58.148,289.915,55.969,294.38,55.969z"/>
				<path d="M206.929,42.841h11.59c0.018,0,0.034,0.009,0.044,0.021c0.012,0.018,0.015,0.033,0.012,0.049l-6.046,31.799
					c-0.003,0.019,0.004,0.039,0.023,0.047c0.016,0.012,0.039,0.004,0.053-0.011l15.557-17.944c0.01-0.013,0.028-0.02,0.044-0.02
					h12.71c0.023,0,0.046,0.014,0.056,0.035c0.003,0.008,0.003,0.017,0.003,0.024c0,0.013-0.003,0.028-0.013,0.039l-16.146,18.185
					l9.85,21.369c0.008,0.008,0.008,0.016,0.008,0.023c0,0.012-0.004,0.023-0.01,0.032c-0.012,0.018-0.033,0.027-0.052,0.027
					h-12.545c-0.022,0-0.046-0.014-0.056-0.035l-9.524-21.125c-0.008-0.018-0.023-0.027-0.042-0.025
					c-0.021,0.001-0.034,0.016-0.04,0.035l-4.011,21.103c-0.004,0.028-0.028,0.048-0.058,0.048h-11.589
					c-0.017,0-0.034-0.009-0.047-0.021c-0.009-0.015-0.014-0.032-0.009-0.048l10.18-53.561
					C206.878,42.861,206.899,42.841,206.929,42.841z"/>
				<path fill-rule="evenodd" clip-rule="evenodd" d="M405.067,67.939c0-2.051-1.698-3.346-4.237-3.346
					c-5.029,0-8.261,4.072-9.2,7.916l-0.033,0.139c0,0-0.004,0.005,0,0.009c0.003,0.001,0.003,0.003,0.003,0.003h0.147
					c6.824,0.045,10.67-0.656,12.356-2.326C404.751,69.688,405.067,68.902,405.067,67.939z M402.291,55.972
					c8.296,0,13.831,4.82,13.831,11.967c0,3.305-1.074,6.024-3.195,8.089c-3.882,3.786-11.183,5.521-22.346,5.259l-0.126-0.002
					c-0.004-0.001-0.004,0-0.004,0c-0.004,0.002-0.004,0.002-0.004,0.004l0.008,0.125c0.037,1.151,0.436,2.773,1.186,3.823
					c1.525,1.929,4.227,2.978,7.571,2.978c4.892,0,9.131-1.187,13.737-3.843c0.021-0.013,0.045-0.011,0.064,0.002
					s0.025,0.036,0.022,0.059l-1.856,9.767c-0.003,0.018-0.015,0.033-0.03,0.041c-5.613,2.857-12.197,3.167-14.772,3.167
					c-10.969,0-17.235-6.098-17.235-16.748c0-6.14,2.255-12.293,6.181-16.88C389.635,58.744,395.66,55.972,402.291,55.972z"/>
			</g>
			<path d="M416.176,92.45c-0.221,2.431,1.552,4.372,3.977,4.372c2.471,0,4.68-2.021,4.902-4.497
				c0.217-2.432-1.557-4.378-3.979-4.378C418.605,87.947,416.397,89.968,416.176,92.45z M415.479,92.387
				c0.256-2.837,2.761-5.138,5.597-5.138c2.839,0,4.931,2.301,4.677,5.138c-0.257,2.836-2.763,5.136-5.6,5.136
				S415.223,95.223,415.479,92.387z M419.487,89.356c0.005-0.012,0.013-0.021,0.028-0.021h1.284l0.014,0.001
				c0.33,0.005,0.546,0.006,0.716,0.021c0.225,0.017,0.396,0.051,0.57,0.112c0.652,0.217,1.024,0.735,1.024,1.395
				c0,0.113-0.012,0.231-0.035,0.352c-0.15,0.811-0.662,1.473-1.605,1.729l0.826,2.436c0,0.003,0,0.006,0,0.008
				c0,0.005,0,0.011-0.001,0.013c-0.008,0.009-0.013,0.012-0.013,0.012h-0.847c0,0-0.02-0.007-0.022-0.017l-0.788-2.319
				l-0.518,0.012h-0.017h-0.571l-0.431,2.305c-0.003,0.012-0.013,0.02-0.013,0.02h-0.707c-0.006,0-0.015-0.003-0.019-0.009
				c-0.003-0.005-0.006-0.012-0.006-0.021l0.438-2.324l0.003-0.029l0.346-1.822L419.487,89.356z M420.665,90.08h-0.567l-0.209,1.135
				l-0.213,1.129h0.555h0.063c0.284-0.005,0.476-0.008,0.625-0.019c0.165-0.012,0.292-0.035,0.427-0.076
				c0.532-0.155,0.907-0.543,1.002-1.041c0.09-0.493-0.132-0.881-0.607-1.033c-0.121-0.044-0.231-0.063-0.395-0.076
				c-0.149-0.009-0.335-0.012-0.617-0.019H420.665z"/>
		</g>
	</g>
</g>
<g>
</g>
<g>
</g>
<g>
</g>
<g>
</g>
<g>
</g>
<g>
</g>
<g>
</g>
<g>
</g>
<g>
</g>
<g>
</g>
<g>
</g>
<g>
</g>
<g>
</g>
<g>
</g>
<g>
</g>
</svg>
