<?xml version="1.0" encoding="UTF-8" standalone="no"?>
<!DOCTYPE svg PUBLIC "-//W3C//DTD SVG 1.1//EN"
 "http://www.w3.org/Graphics/SVG/1.1/DTD/svg11.dtd">
<!-- Generated by graphviz version 2.40.1 (20161225.0304)
 -->
<!-- Title: %3 Pages: 1 -->
<svg width="890pt" height="302pt"
 viewBox="0.00 0.00 890.00 302.00" xmlns="http://www.w3.org/2000/svg" xmlns:xlink="http://www.w3.org/1999/xlink">
<g id="graph0" class="graph" transform="scale(1 1) rotate(0) translate(4 298)">
<title>%3</title>
<polygon fill="#ffffff" stroke="transparent" points="-4,4 -4,-298 886,-298 886,4 -4,4"/>
<g id="clust1" class="cluster">
<title>cluster__docidmap</title>
<polygon fill="none" stroke="#000000" stroke-dasharray="1,5" points="8,-8 8,-286 874,-286 874,-8 8,-8"/>
<text text-anchor="middle" x="441" y="-270.8" font-family="Times,serif" font-size="14.00" fill="#000000">Docidmap</text>
</g>
<g id="clust2" class="cluster">
<title>cluster__entry</title>
<polygon fill="none" stroke="#000000" stroke-dasharray="1,5" points="565,-98 565,-255 853,-255 853,-98 565,-98"/>
<text text-anchor="middle" x="709" y="-239.8" font-family="Times,serif" font-size="14.00" fill="#000000">Docidmap::Entry</text>
</g>
<!-- docidmap__inst__index_offset_offset -->
<g id="node1" class="node">
<title>docidmap__inst__index_offset_offset</title>
<polygon fill="#e0ffe0" stroke="transparent" points="24,-46 24,-67 136,-67 136,-46 24,-46"/>
<polygon fill="none" stroke="#000000" points="24,-46 24,-67 136,-67 136,-46 24,-46"/>
<text text-anchor="start" x="74.5" y="-52.8" font-family="Times,serif" font-size="14.00" fill="#000000">id</text>
<polygon fill="#e0ffe0" stroke="transparent" points="136,-46 136,-67 212,-67 212,-46 136,-46"/>
<polygon fill="none" stroke="#000000" points="136,-46 136,-67 212,-67 212,-46 136,-46"/>
<text text-anchor="start" x="159" y="-52.8" font-family="Times,serif" font-size="14.00" fill="#000000">value</text>
<polygon fill="none" stroke="#000000" points="24,-25 24,-46 136,-46 136,-25 24,-25"/>
<text text-anchor="start" x="27" y="-31.8" font-family="Times,serif" font-size="14.00" fill="#000000">index_offset_offset</text>
<polygon fill="none" stroke="#000000" points="136,-25 136,-46 212,-46 212,-25 136,-25"/>
<text text-anchor="start" x="139" y="-31.8" font-family="Times,serif" font-size="14.00" fill="#000000">(_io.size &#45; 4)</text>
</g>
<!-- docidmap__inst__index_offset -->
<g id="node2" class="node">
<title>docidmap__inst__index_offset</title>
<polygon fill="#e0ffe0" stroke="transparent" points="264,-62 264,-83 376,-83 376,-62 264,-62"/>
<polygon fill="none" stroke="#000000" points="264,-62 264,-83 376,-83 376,-62 264,-62"/>
<text text-anchor="start" x="310.5" y="-68.8" font-family="Times,serif" font-size="14.00" fill="#000000">pos</text>
<polygon fill="#e0ffe0" stroke="transparent" points="376,-62 376,-83 404,-83 404,-62 376,-62"/>
<polygon fill="none" stroke="#000000" points="376,-62 376,-83 404,-83 404,-62 376,-62"/>
<text text-anchor="start" x="379" y="-68.8" font-family="Times,serif" font-size="14.00" fill="#000000">size</text>
<polygon fill="#e0ffe0" stroke="transparent" points="404,-62 404,-83 434,-83 434,-62 404,-62"/>
<polygon fill="none" stroke="#000000" points="404,-62 404,-83 434,-83 434,-62 404,-62"/>
<text text-anchor="start" x="407" y="-68.8" font-family="Times,serif" font-size="14.00" fill="#000000">type</text>
<polygon fill="#e0ffe0" stroke="transparent" points="434,-62 434,-83 508,-83 508,-62 434,-62"/>
<polygon fill="none" stroke="#000000" points="434,-62 434,-83 508,-83 508,-62 434,-62"/>
<text text-anchor="start" x="465.5" y="-68.8" font-family="Times,serif" font-size="14.00" fill="#000000">id</text>
<polygon fill="none" stroke="#000000" points="264,-41 264,-62 376,-62 376,-41 264,-41"/>
<text text-anchor="start" x="267" y="-47.8" font-family="Times,serif" font-size="14.00" fill="#000000">index_offset_offset</text>
<polygon fill="none" stroke="#000000" points="376,-41 376,-62 404,-62 404,-41 376,-41"/>
<text text-anchor="start" x="386.5" y="-47.8" font-family="Times,serif" font-size="14.00" fill="#000000">4</text>
<polygon fill="none" stroke="#000000" points="404,-41 404,-62 434,-62 434,-41 404,-41"/>
<text text-anchor="start" x="407" y="-47.8" font-family="Times,serif" font-size="14.00" fill="#000000">u4le</text>
<polygon fill="none" stroke="#000000" points="434,-41 434,-62 508,-62 508,-41 434,-41"/>
<text text-anchor="start" x="437" y="-47.8" font-family="Times,serif" font-size="14.00" fill="#000000">index_offset</text>
</g>
<!-- docidmap__inst__index_offset_offset&#45;&gt;docidmap__inst__index_offset -->
<g id="edge1" class="edge">
<title>docidmap__inst__index_offset_offset:index_offset_offset_type&#45;&gt;docidmap__inst__index_offset:index_offset_pos</title>
<path fill="none" stroke="#404040" d="M220.0915,-50.3869C231.3694,-50.6731 242.791,-50.8805 253.8995,-50.9619"/>
<polygon fill="#404040" stroke="#404040" points="253.9868,-54.4622 264,-51 254.0133,-47.4622 253.9868,-54.4622"/>
</g>
<!-- docidmap__inst__index -->
<g id="node3" class="node">
<title>docidmap__inst__index</title>
<polygon fill="#e0ffe0" stroke="transparent" points="560,-62 560,-83 695,-83 695,-62 560,-62"/>
<polygon fill="none" stroke="#000000" points="560,-62 560,-83 695,-83 695,-62 560,-62"/>
<text text-anchor="start" x="618" y="-68.8" font-family="Times,serif" font-size="14.00" fill="#000000">pos</text>
<polygon fill="#e0ffe0" stroke="transparent" points="695,-62 695,-83 753,-83 753,-62 695,-62"/>
<polygon fill="none" stroke="#000000" points="695,-62 695,-83 753,-83 753,-62 695,-62"/>
<text text-anchor="start" x="713" y="-68.8" font-family="Times,serif" font-size="14.00" fill="#000000">size</text>
<polygon fill="#e0ffe0" stroke="transparent" points="753,-62 753,-83 805,-83 805,-62 753,-62"/>
<polygon fill="none" stroke="#000000" points="753,-62 753,-83 805,-83 805,-62 753,-62"/>
<text text-anchor="start" x="767" y="-68.8" font-family="Times,serif" font-size="14.00" fill="#000000">type</text>
<polygon fill="#e0ffe0" stroke="transparent" points="805,-62 805,-83 858,-83 858,-62 805,-62"/>
<polygon fill="none" stroke="#000000" points="805,-62 805,-83 858,-83 858,-62 805,-62"/>
<text text-anchor="start" x="826" y="-68.8" font-family="Times,serif" font-size="14.00" fill="#000000">id</text>
<polygon fill="none" stroke="#000000" points="560,-41 560,-62 695,-62 695,-41 560,-41"/>
<text text-anchor="start" x="593.5" y="-47.8" font-family="Times,serif" font-size="14.00" fill="#000000">index_offset</text>
<polygon fill="none" stroke="#000000" points="695,-41 695,-62 753,-62 753,-41 695,-41"/>
<text text-anchor="start" x="720.5" y="-47.8" font-family="Times,serif" font-size="14.00" fill="#000000">4</text>
<polygon fill="none" stroke="#000000" points="753,-41 753,-62 805,-62 805,-41 753,-41"/>
<text text-anchor="start" x="763.5" y="-47.8" font-family="Times,serif" font-size="14.00" fill="#000000">Entry</text>
<polygon fill="none" stroke="#000000" points="805,-41 805,-62 858,-62 858,-41 805,-41"/>
<text text-anchor="start" x="816" y="-47.8" font-family="Times,serif" font-size="14.00" fill="#000000">index</text>
<polygon fill="none" stroke="#000000" points="560,-20 560,-41 858,-41 858,-20 560,-20"/>
<text text-anchor="start" x="563" y="-26.8" font-family="Times,serif" font-size="14.00" fill="#000000">repeat ((index_offset_offset &#45; index_offset) / 4) times</text>
</g>
<!-- docidmap__inst__index_offset_offset&#45;&gt;docidmap__inst__index -->
<g id="edge4" class="edge">
<title>docidmap__inst__index_offset_offset:index_offset_offset_type&#45;&gt;docidmap__inst__index:index__repeat</title>
<path fill="none" stroke="#404040" d="M220.3446,-31.1496C232.3423,-29.8541 244.427,-28.7516 256,-28 371.3126,-20.5113 400.4742,-25.3758 516,-28 531.7483,-28.3577 537.9669,-29.4348 549.9953,-29.8419"/>
<polygon fill="#404040" stroke="#404040" points="549.9459,-33.3414 560,-30 550.0566,-26.3423 549.9459,-33.3414"/>
</g>
<!-- docidmap__inst__index_offset&#45;&gt;docidmap__inst__index -->
<g id="edge2" class="edge">
<title>docidmap__inst__index_offset:index_offset_type&#45;&gt;docidmap__inst__index:index_pos</title>
<path fill="none" stroke="#404040" d="M508,-51C527.3194,-51 534.5265,-51 549.8716,-51"/>
<polygon fill="#404040" stroke="#404040" points="550,-54.5001 560,-51 550,-47.5001 550,-54.5001"/>
</g>
<!-- docidmap__inst__index_offset&#45;&gt;docidmap__inst__index -->
<g id="edge5" class="edge">
<title>docidmap__inst__index_offset:index_offset_type&#45;&gt;docidmap__inst__index:index__repeat</title>
<path fill="none" stroke="#404040" d="M508,-51C529.0301,-51 533.8473,-36.0498 549.8109,-31.3779"/>
<polygon fill="#404040" stroke="#404040" points="550.5593,-34.8086 560,-30 549.6211,-27.8717 550.5593,-34.8086"/>
</g>
<!-- entry__seq -->
<g id="node4" class="node">
<title>entry__seq</title>
<polygon fill="#e0ffe0" stroke="transparent" points="622,-131 622,-152 647,-152 647,-131 622,-131"/>
<polygon fill="none" stroke="#000000" points="622,-131 622,-152 647,-152 647,-131 622,-131"/>
<text text-anchor="start" x="625" y="-137.8" font-family="Times,serif" font-size="14.00" fill="#000000">pos</text>
<polygon fill="#e0ffe0" stroke="transparent" points="647,-131 647,-152 675,-152 675,-131 647,-131"/>
<polygon fill="none" stroke="#000000" points="647,-131 647,-152 675,-152 675,-131 647,-131"/>
<text text-anchor="start" x="650" y="-137.8" font-family="Times,serif" font-size="14.00" fill="#000000">size</text>
<polygon fill="#e0ffe0" stroke="transparent" points="675,-131 675,-152 705,-152 705,-131 675,-131"/>
<polygon fill="none" stroke="#000000" points="675,-131 675,-152 705,-152 705,-131 675,-131"/>
<text text-anchor="start" x="678" y="-137.8" font-family="Times,serif" font-size="14.00" fill="#000000">type</text>
<polygon fill="#e0ffe0" stroke="transparent" points="705,-131 705,-152 797,-152 797,-131 705,-131"/>
<polygon fill="none" stroke="#000000" points="705,-131 705,-152 797,-152 797,-131 705,-131"/>
<text text-anchor="start" x="745.5" y="-137.8" font-family="Times,serif" font-size="14.00" fill="#000000">id</text>
<polygon fill="none" stroke="#000000" points="622,-110 622,-131 647,-131 647,-110 622,-110"/>
<text text-anchor="start" x="631" y="-116.8" font-family="Times,serif" font-size="14.00" fill="#000000">0</text>
<polygon fill="none" stroke="#000000" points="647,-110 647,-131 675,-131 675,-110 647,-110"/>
<text text-anchor="start" x="657.5" y="-116.8" font-family="Times,serif" font-size="14.00" fill="#000000">4</text>
<polygon fill="none" stroke="#000000" points="675,-110 675,-131 705,-131 705,-110 675,-110"/>
<text text-anchor="start" x="678" y="-116.8" font-family="Times,serif" font-size="14.00" fill="#000000">u4le</text>
<polygon fill="none" stroke="#000000" points="705,-110 705,-131 797,-131 797,-110 705,-110"/>
<text text-anchor="start" x="708" y="-116.8" font-family="Times,serif" font-size="14.00" fill="#000000">filename_offset</text>
</g>
<!-- docidmap__inst__index&#45;&gt;entry__seq -->
<g id="edge3" class="edge">
<title>docidmap__inst__index:index_type&#45;&gt;entry__seq</title>
<path fill="none" stroke="#000000" stroke-width="2" d="M814.3842,-109.7838C834.6201,-103.5789 851.5455,-96.1084 858,-87.5 867.7317,-74.521 874.2222,-51 858,-51"/>
<polygon fill="#000000" stroke="#000000" stroke-width="2" points="813.1785,-106.4891 804.5492,-112.6361 815.1283,-113.2121 813.1785,-106.4891"/>
</g>
<!-- entry__inst__fn -->
<g id="node5" class="node">
<title>entry__inst__fn</title>
<polygon fill="#e0ffe0" stroke="transparent" points="581,-199 581,-220 673,-220 673,-199 581,-199"/>
<polygon fill="none" stroke="#000000" points="581,-199 581,-220 673,-220 673,-199 581,-199"/>
<text text-anchor="start" x="617.5" y="-205.8" font-family="Times,serif" font-size="14.00" fill="#000000">pos</text>
<polygon fill="#e0ffe0" stroke="transparent" points="673,-199 673,-220 701,-220 701,-199 673,-199"/>
<polygon fill="none" stroke="#000000" points="673,-199 673,-220 701,-220 701,-199 673,-199"/>
<text text-anchor="start" x="676" y="-205.8" font-family="Times,serif" font-size="14.00" fill="#000000">size</text>
<polygon fill="#e0ffe0" stroke="transparent" points="701,-199 701,-220 819,-220 819,-199 701,-199"/>
<polygon fill="none" stroke="#000000" points="701,-199 701,-220 819,-220 819,-199 701,-199"/>
<text text-anchor="start" x="748" y="-205.8" font-family="Times,serif" font-size="14.00" fill="#000000">type</text>
<polygon fill="#e0ffe0" stroke="transparent" points="819,-199 819,-220 837,-220 837,-199 819,-199"/>
<polygon fill="none" stroke="#000000" points="819,-199 819,-220 837,-220 837,-199 819,-199"/>
<text text-anchor="start" x="822.5" y="-205.8" font-family="Times,serif" font-size="14.00" fill="#000000">id</text>
<polygon fill="none" stroke="#000000" points="581,-178 581,-199 673,-199 673,-178 581,-178"/>
<text text-anchor="start" x="584" y="-184.8" font-family="Times,serif" font-size="14.00" fill="#000000">filename_offset</text>
<polygon fill="none" stroke="#000000" points="673,-178 673,-199 701,-199 701,-178 673,-178"/>
<text text-anchor="start" x="681" y="-184.8" font-family="Times,serif" font-size="14.00" fill="#000000">...</text>
<polygon fill="none" stroke="#000000" points="701,-178 701,-199 819,-199 819,-178 701,-178"/>
<text text-anchor="start" x="704" y="-184.8" font-family="Times,serif" font-size="14.00" fill="#000000">str(term=&#39;\n&#39;, UTF8)</text>
<polygon fill="none" stroke="#000000" points="819,-178 819,-199 837,-199 837,-178 819,-178"/>
<text text-anchor="start" x="822" y="-184.8" font-family="Times,serif" font-size="14.00" fill="#000000">fn</text>
</g>
<!-- entry__seq&#45;&gt;entry__inst__fn -->
<g id="edge6" class="edge">
<title>entry__seq:filename_offset_type&#45;&gt;entry__inst__fn:fn_pos</title>
<path fill="none" stroke="#404040" d="M631.0682,-168.6993C655.3366,-146.7995 780.7506,-182.8747 804.5,-156 883.4117,-66.7038 751,-105.1326 751,-110"/>
<polygon fill="#404040" stroke="#404040" points="627.8009,-167.4355 627,-178 634.2142,-170.2408 627.8009,-167.4355"/>
</g>
</g>
</svg>
