<?xml version="1.0" encoding="UTF-8" standalone="no"?>
<!DOCTYPE svg PUBLIC "-//W3C//DTD SVG 1.1//EN"
 "http://www.w3.org/Graphics/SVG/1.1/DTD/svg11.dtd">
<!-- Generated by graphviz version 2.40.1 (20161225.0304)
 -->
<!-- Title: %3 Pages: 1 -->
<svg width="682pt" height="194pt"
 viewBox="0.00 0.00 682.00 194.00" xmlns="http://www.w3.org/2000/svg" xmlns:xlink="http://www.w3.org/1999/xlink">
<g id="graph0" class="graph" transform="scale(1 1) rotate(0) translate(4 190)">
<title>%3</title>
<polygon fill="#ffffff" stroke="transparent" points="-4,4 -4,-190 678,-190 678,4 -4,4"/>
<g id="clust1" class="cluster">
<title>cluster__meta</title>
<polygon fill="none" stroke="#000000" stroke-dasharray="1,5" points="8,-8 8,-178 666,-178 666,-8 8,-8"/>
<text text-anchor="middle" x="337" y="-162.8" font-family="Times,serif" font-size="14.00" fill="#000000">Meta</text>
</g>
<g id="clust2" class="cluster">
<title>cluster__metaentry</title>
<polygon fill="none" stroke="#000000" stroke-dasharray="1,5" points="219,-16 219,-147 658,-147 658,-16 219,-16"/>
<text text-anchor="middle" x="438.5" y="-131.8" font-family="Times,serif" font-size="14.00" fill="#000000">Meta::Metaentry</text>
</g>
<!-- meta__seq -->
<g id="node1" class="node">
<title>meta__seq</title>
<polygon fill="#e0ffe0" stroke="transparent" points="24.5,-81 24.5,-102 49.5,-102 49.5,-81 24.5,-81"/>
<polygon fill="none" stroke="#000000" points="24.5,-81 24.5,-102 49.5,-102 49.5,-81 24.5,-81"/>
<text text-anchor="start" x="27.5" y="-87.8" font-family="Times,serif" font-size="14.00" fill="#000000">pos</text>
<polygon fill="#e0ffe0" stroke="transparent" points="49.5,-81 49.5,-102 77.5,-102 77.5,-81 49.5,-81"/>
<polygon fill="none" stroke="#000000" points="49.5,-81 49.5,-102 77.5,-102 77.5,-81 49.5,-81"/>
<text text-anchor="start" x="52.5" y="-87.8" font-family="Times,serif" font-size="14.00" fill="#000000">size</text>
<polygon fill="#e0ffe0" stroke="transparent" points="77.5,-81 77.5,-102 140.5,-102 140.5,-81 77.5,-81"/>
<polygon fill="none" stroke="#000000" points="77.5,-81 77.5,-102 140.5,-102 140.5,-81 77.5,-81"/>
<text text-anchor="start" x="97" y="-87.8" font-family="Times,serif" font-size="14.00" fill="#000000">type</text>
<polygon fill="#e0ffe0" stroke="transparent" points="140.5,-81 140.5,-102 183.5,-102 183.5,-81 140.5,-81"/>
<polygon fill="none" stroke="#000000" points="140.5,-81 140.5,-102 183.5,-102 183.5,-81 140.5,-81"/>
<text text-anchor="start" x="156.5" y="-87.8" font-family="Times,serif" font-size="14.00" fill="#000000">id</text>
<polygon fill="none" stroke="#000000" points="24.5,-60 24.5,-81 49.5,-81 49.5,-60 24.5,-60"/>
<text text-anchor="start" x="33.5" y="-66.8" font-family="Times,serif" font-size="14.00" fill="#000000">0</text>
<polygon fill="none" stroke="#000000" points="49.5,-60 49.5,-81 77.5,-81 77.5,-60 49.5,-60"/>
<text text-anchor="start" x="56.5" y="-66.8" font-family="Times,serif" font-size="14.00" fill="#000000">16</text>
<polygon fill="none" stroke="#000000" points="77.5,-60 77.5,-81 140.5,-81 140.5,-60 77.5,-60"/>
<text text-anchor="start" x="80.5" y="-66.8" font-family="Times,serif" font-size="14.00" fill="#000000">Metaentry</text>
<polygon fill="none" stroke="#000000" points="140.5,-60 140.5,-81 183.5,-81 183.5,-60 140.5,-60"/>
<text text-anchor="start" x="143.5" y="-66.8" font-family="Times,serif" font-size="14.00" fill="#000000">entries</text>
<polygon fill="none" stroke="#000000" points="24.5,-39 24.5,-60 183.5,-60 183.5,-39 24.5,-39"/>
<text text-anchor="start" x="40.5" y="-45.8" font-family="Times,serif" font-size="14.00" fill="#000000">repeat to end of stream</text>
</g>
<!-- metaentry__seq -->
<g id="node2" class="node">
<title>metaentry__seq</title>
<polygon fill="#e0ffe0" stroke="transparent" points="235.5,-91 235.5,-112 260.5,-112 260.5,-91 235.5,-91"/>
<polygon fill="none" stroke="#000000" points="235.5,-91 235.5,-112 260.5,-112 260.5,-91 235.5,-91"/>
<text text-anchor="start" x="238.5" y="-97.8" font-family="Times,serif" font-size="14.00" fill="#000000">pos</text>
<polygon fill="#e0ffe0" stroke="transparent" points="260.5,-91 260.5,-112 288.5,-112 288.5,-91 260.5,-91"/>
<polygon fill="none" stroke="#000000" points="260.5,-91 260.5,-112 288.5,-112 288.5,-91 260.5,-91"/>
<text text-anchor="start" x="263.5" y="-97.8" font-family="Times,serif" font-size="14.00" fill="#000000">size</text>
<polygon fill="#e0ffe0" stroke="transparent" points="288.5,-91 288.5,-112 352.5,-112 352.5,-91 288.5,-91"/>
<polygon fill="none" stroke="#000000" points="288.5,-91 288.5,-112 352.5,-112 352.5,-91 288.5,-91"/>
<text text-anchor="start" x="308.5" y="-97.8" font-family="Times,serif" font-size="14.00" fill="#000000">type</text>
<polygon fill="#e0ffe0" stroke="transparent" points="352.5,-91 352.5,-112 426.5,-112 426.5,-91 352.5,-91"/>
<polygon fill="none" stroke="#000000" points="352.5,-91 352.5,-112 426.5,-112 426.5,-91 352.5,-91"/>
<text text-anchor="start" x="384" y="-97.8" font-family="Times,serif" font-size="14.00" fill="#000000">id</text>
<polygon fill="none" stroke="#000000" points="235.5,-70 235.5,-91 260.5,-91 260.5,-70 235.5,-70"/>
<text text-anchor="start" x="244.5" y="-76.8" font-family="Times,serif" font-size="14.00" fill="#000000">0</text>
<polygon fill="none" stroke="#000000" points="260.5,-70 260.5,-91 288.5,-91 288.5,-70 260.5,-70"/>
<text text-anchor="start" x="271" y="-76.8" font-family="Times,serif" font-size="14.00" fill="#000000">4</text>
<polygon fill="none" stroke="#000000" points="288.5,-70 288.5,-91 352.5,-91 352.5,-70 288.5,-70"/>
<text text-anchor="start" x="291.5" y="-76.8" font-family="Times,serif" font-size="14.00" fill="#000000">str(ASCII)</text>
<polygon fill="none" stroke="#000000" points="352.5,-70 352.5,-91 426.5,-91 426.5,-70 352.5,-70"/>
<text text-anchor="start" x="355.5" y="-76.8" font-family="Times,serif" font-size="14.00" fill="#000000">trigram_raw</text>
<polygon fill="none" stroke="#000000" points="235.5,-49 235.5,-70 260.5,-70 260.5,-49 235.5,-49"/>
<text text-anchor="start" x="244.5" y="-55.8" font-family="Times,serif" font-size="14.00" fill="#000000">4</text>
<polygon fill="none" stroke="#000000" points="260.5,-49 260.5,-70 288.5,-70 288.5,-49 260.5,-49"/>
<text text-anchor="start" x="271" y="-55.8" font-family="Times,serif" font-size="14.00" fill="#000000">4</text>
<polygon fill="none" stroke="#000000" points="288.5,-49 288.5,-70 352.5,-70 352.5,-49 288.5,-49"/>
<text text-anchor="start" x="308.5" y="-55.8" font-family="Times,serif" font-size="14.00" fill="#000000">u4le</text>
<polygon fill="none" stroke="#000000" points="352.5,-49 352.5,-70 426.5,-70 426.5,-49 352.5,-49"/>
<text text-anchor="start" x="355.5" y="-55.8" font-family="Times,serif" font-size="14.00" fill="#000000">num_entries</text>
<polygon fill="none" stroke="#000000" points="235.5,-28 235.5,-49 260.5,-49 260.5,-28 235.5,-28"/>
<text text-anchor="start" x="244.5" y="-34.8" font-family="Times,serif" font-size="14.00" fill="#000000">8</text>
<polygon fill="none" stroke="#000000" points="260.5,-28 260.5,-49 288.5,-49 288.5,-28 260.5,-28"/>
<text text-anchor="start" x="271" y="-34.8" font-family="Times,serif" font-size="14.00" fill="#000000">8</text>
<polygon fill="none" stroke="#000000" points="288.5,-28 288.5,-49 352.5,-49 352.5,-28 288.5,-28"/>
<text text-anchor="start" x="308.5" y="-34.8" font-family="Times,serif" font-size="14.00" fill="#000000">u8le</text>
<polygon fill="none" stroke="#000000" points="352.5,-28 352.5,-49 426.5,-49 426.5,-28 352.5,-28"/>
<text text-anchor="start" x="359" y="-34.8" font-family="Times,serif" font-size="14.00" fill="#000000">offset_data</text>
</g>
<!-- meta__seq&#45;&gt;metaentry__seq -->
<g id="edge1" class="edge">
<title>meta__seq:entries_type&#45;&gt;metaentry__seq</title>
<path fill="none" stroke="#000000" stroke-width="2" d="M183.5,-70C194.2467,-70 205.4353,-70 216.6296,-70"/>
<polygon fill="#000000" stroke="#000000" stroke-width="2" points="216.8993,-73.5001 226.8993,-70 216.8992,-66.5001 216.8993,-73.5001"/>
</g>
<!-- metaentry__inst__trigram -->
<g id="node3" class="node">
<title>metaentry__inst__trigram</title>
<polygon fill="#e0ffe0" stroke="transparent" points="478,-81 478,-102 525,-102 525,-81 478,-81"/>
<polygon fill="none" stroke="#000000" points="478,-81 478,-102 525,-102 525,-81 478,-81"/>
<text text-anchor="start" x="496" y="-87.8" font-family="Times,serif" font-size="14.00" fill="#000000">id</text>
<polygon fill="#e0ffe0" stroke="transparent" points="525,-81 525,-102 642,-102 642,-81 525,-81"/>
<polygon fill="none" stroke="#000000" points="525,-81 525,-102 642,-102 642,-81 525,-81"/>
<text text-anchor="start" x="568.5" y="-87.8" font-family="Times,serif" font-size="14.00" fill="#000000">value</text>
<polygon fill="none" stroke="#000000" points="478,-60 478,-81 525,-81 525,-60 478,-60"/>
<text text-anchor="start" x="481" y="-66.8" font-family="Times,serif" font-size="14.00" fill="#000000">trigram</text>
<polygon fill="none" stroke="#000000" points="525,-60 525,-81 642,-81 642,-60 525,-60"/>
<text text-anchor="start" x="528" y="-66.8" font-family="Times,serif" font-size="14.00" fill="#000000">trigram_raw.reverse</text>
</g>
<!-- metaentry__seq&#45;&gt;metaentry__inst__trigram -->
<g id="edge2" class="edge">
<title>metaentry__seq:trigram_raw_type&#45;&gt;metaentry__inst__trigram</title>
<path fill="none" stroke="#404040" d="M426.5,-81C437.2357,-81 448.457,-81 459.6368,-81"/>
<polygon fill="#404040" stroke="#404040" points="459.8771,-84.5001 469.877,-81 459.877,-77.5001 459.8771,-84.5001"/>
</g>
</g>
</svg>
